simulation
nRows=67
nColumns=15
endheader
time  TH_x TH_y TH_z SC_y  SC_z  SC_x  AC_y  AC_z  AC_x  GH_y  GH_z  GH_yy  EL_x  PS_y
0.249903  0.000000  0.000000  0.000000  -28.793666  -9.565177  8.626268  60.726034  14.977799  -15.927542  25.780600  36.050510  -20.215776  15.791820  117.551485
0.250291  0.000000  0.000000  0.000000  -22.997231  -20.402413  8.626268  51.888415  -20.954527  -7.376734  18.947816  20.769286  -15.340306  19.668737  125.013746
0.250680  0.000000  0.000000  0.000000  -32.871825  -16.511275  8.626268  60.066643  -16.370633  -5.718526  28.748588  38.538445  -13.479033  27.257998  129.885238
0.251069  0.000000  0.000000  0.000000  -45.299085  3.463408  8.626268  50.037106  -11.756106  -7.438018  29.883902  24.247060  -19.577540  20.093540  131.544593
0.251457  0.000000  0.000000  0.000000  -31.016527  -0.495861  14.626268  54.818504  -2.664038  -12.821635  28.294028  29.167217  -14.643068  20.800057  125.070807
0.251846  0.000000  0.000000  0.000000  -35.960609  5.109182  14.626268  57.546857  10.521382  -3.302628  21.334388  36.058164  -9.757265  29.445723  123.496682
0.252235  0.000000  0.000000  0.000000  -38.938118  -5.081147  14.626268  52.687744  7.116937  -17.510663  32.690519  37.589233  -24.131295  21.134319  126.478365
0.252623  0.000000  0.000000  0.000000  -42.813692  -11.437055  14.626268  60.494110  -8.248327  -8.382628  18.634488  34.874094  -14.674939  23.873574  125.356785
0.253012  0.000000  0.000000  0.000000  -15.737105  5.035884  14.626268  53.189385  21.926916  -6.633224  37.513199  22.779634  -19.785024  14.801912  133.636020
0.253401  0.000000  0.000000  0.000000  -28.969943  5.169139  14.626268  58.547516  -2.990710  -3.363516  34.710169  34.603216  -5.067527  23.662683  125.716560
0.253789  0.000000  0.000000  0.000000  -16.078640  -3.912385  14.626268  53.761384  7.465622  -17.113769  26.001949  36.680908  -12.491011  21.689001  116.198927
0.254178  0.000000  0.000000  0.000000  -45.454422  -19.924241  14.626268  57.892380  -18.922103  -17.387418  22.485569  31.668508  -15.817188  27.314916  133.601449
0.254567  0.000000  0.000000  0.000000  -14.237290  -8.086374  14.626268  61.818841  -2.131124  -14.307821  28.867549  34.329236  -17.128095  28.199619  133.895969
0.254955  0.000000  0.000000  0.000000  -39.671891  -8.792580  14.626268  57.144287  -25.448171  -6.503970  23.171604  23.761145  -17.231833  16.448021  125.419111
0.255344  0.000000  0.000000  0.000000  -39.863941  -9.698625  14.626268  60.138697  -9.082701  -5.331849  34.575683  36.982561  -15.587447  16.828568  120.713357
0.255733  0.000000  0.000000  0.000000  -30.355869  9.509591  14.626268  50.504318  -14.881401  -8.827567  38.125141  21.197781  -15.137765  16.305783  118.502633
0.256121  0.000000  0.000000  0.000000  -17.074795  -5.454075  14.626268  52.087152  -15.372960  -9.441939  19.486779  30.316392  -24.302674  28.986745  133.391193
0.256510  0.000000  0.000000  0.000000  -38.511280  0.101946  14.626268  57.620327  3.741985  -10.446054  19.806934  25.034179  -7.217355  11.057653  130.368412
0.256899  0.000000  0.000000  0.000000  -26.111504  -13.356617  14.626268  59.306171  -13.186692  -9.352593  30.459363  22.076890  -22.659747  19.944217  115.694411
0.257287  0.000000  0.000000  0.000000  -38.293256  -5.476311  14.626268  53.875946  17.896275  -21.496524  26.122199  26.605731  -14.288652  19.264478  128.885645
0.257676  0.000000  0.000000  0.000000  -40.680651  -19.882227  14.626268  54.052867  -15.336531  -19.684417  24.457153  37.488127  -20.289165  27.349858  126.480570
0.258065  0.000000  0.000000  0.000000  -30.218054  4.123516  14.626268  54.033063  1.535519  -5.693793  23.803354  24.297633  -22.470735  14.370260  118.207940
0.258453  0.000000  0.000000  0.000000  -38.823053  2.828074  14.626268  46.158544  16.645379  -14.801320  27.523412  21.838383  -24.137203  13.739401  129.537987
0.258842  0.000000  0.000000  0.000000  -31.016527  -0.495861  20.626268  54.507766  -7.560145  -16.304736  28.294028  29.167217  -14.643068  20.800057  125.070807
0.259230  0.000000  0.000000  0.000000  -47.826106  2.922261  20.626268  58.575452  7.036673  -7.506557  29.819802  20.107004  -7.736177  29.038898  118.449055
0.259619  0.000000  0.000000  0.000000  -11.882177  1.063334  20.626268  62.437071  -0.209376  -9.318358  33.420050  32.140427  -22.333576  22.227450  122.097034
0.260008  0.000000  0.000000  0.000000  -38.640090  -14.304475  20.626268  61.658680  -15.240589  -18.155811  23.275920  32.000290  -5.924713  29.467390  131.235626
0.260396  0.000000  0.000000  0.000000  -21.328656  7.344587  20.626268  49.695447  -5.349227  -19.116774  35.843869  31.919315  -18.190546  28.132417  117.094541
0.260785  0.000000  0.000000  0.000000  -43.408320  -1.270971  20.626268  54.756778  4.889752  -23.449003  25.262623  35.813883  -18.292187  14.508454  130.061109
0.261174  0.000000  0.000000  0.000000  -46.582641  2.178920  20.626268  58.950578  -2.223219  -10.175348  25.732324  37.933622  -9.238874  27.554974  121.618165
0.261562  0.000000  0.000000  0.000000  -18.518689  -0.629078  20.626268  58.457650  -8.324197  -16.260343  28.754805  25.903892  -9.855715  12.697826  128.038666
0.261951  0.000000  0.000000  0.000000  -27.463508  8.035087  20.626268  50.437708  -12.986241  -7.502819  34.401282  24.666387  -18.025382  12.523700  118.576741
0.262340  0.000000  0.000000  0.000000  -23.773155  0.355347  20.626268  59.879822  -2.329233  -8.070343  36.825911  36.209621  -12.757960  26.830730  116.000055
0.262728  0.000000  0.000000  0.000000  -12.331257  -14.069652  20.626268  62.922907  -1.925172  -20.713136  22.530475  19.328162  -16.177827  17.499062  130.193368
0.263117  0.000000  0.000000  0.000000  -31.016527  -0.495861  26.626268  53.888683  -12.428013  -19.867658  28.294028  29.167217  -14.643068  20.800057  125.070807
0.263506  0.000000  0.000000  0.000000  -17.171664  4.251764  26.626268  53.127414  -20.911287  -16.215595  24.282580  38.184304  -10.692626  27.181113  122.866018
0.263894  0.000000  0.000000  0.000000  -17.255178  4.976950  26.626268  46.364235  12.379960  -28.529160  28.816557  22.559681  -16.589568  16.359862  129.153031
0.264283  0.000000  0.000000  0.000000  -47.051161  -3.363043  26.626268  58.865809  -2.900703  -15.818832  28.389100  33.264947  -20.280216  19.797000  120.786161
0.264672  0.000000  0.000000  0.000000  -41.018276  -4.149938  26.626268  44.400989  -14.909389  -28.586267  36.095336  37.362686  -7.960387  15.256054  117.697054
0.265060  0.000000  0.000000  0.000000  -45.531324  10.132232  26.626268  46.329186  0.319564  -21.500028  21.879756  28.647601  -9.294939  18.910331  118.232967
0.265449  0.000000  0.000000  0.000000  -42.906418  -18.111311  26.626268  56.187674  -34.670370  -13.770715  26.124129  24.442268  -22.301116  30.702038  129.493030
0.265838  0.000000  0.000000  0.000000  -42.140776  -13.472472  26.626268  63.771110  5.066283  -26.073138  26.085308  21.647464  -7.650333  26.007150  130.438534
0.266226  0.000000  0.000000  0.000000  -41.668179  0.309955  26.626268  54.773985  -5.768152  -18.974947  29.843214  28.829601  -22.378783  11.982483  119.144984
0.266615  0.000000  0.000000  0.000000  -46.485482  -3.862688  26.626268  62.870154  4.973599  -14.308004  24.308516  38.769595  -7.284570  29.528446  123.004295
0.267003  0.000000  0.000000  0.000000  -39.215258  0.628862  26.626268  61.168226  -0.619667  -16.166085  28.884358  37.297905  -22.590714  14.186146  129.365337
0.267392  0.000000  0.000000  0.000000  -28.727107  -8.029075  26.626268  48.064247  -28.801757  -15.155570  33.270634  38.534342  -15.822529  12.195578  118.173101
0.267781  0.000000  0.000000  0.000000  -38.223278  -6.346528  26.626268  51.544147  -28.532175  -15.279607  18.931807  31.648088  -12.155212  18.821010  124.188047
0.268169  0.000000  0.000000  0.000000  -43.885292  -9.385676  26.626268  62.318930  -6.754224  -25.803156  18.455904  21.353016  -19.601118  13.309121  120.814045
0.268558  0.000000  0.000000  0.000000  -18.530727  -3.572243  26.626268  60.460364  -18.433594  -11.803049  21.191406  28.622041  -5.711643  14.250287  128.326974
0.268947  0.000000  0.000000  0.000000  -14.791239  -13.337797  26.626268  46.199948  -34.813809  -14.613021  20.132963  19.720812  -8.811372  24.190182  117.588550
0.269335  0.000000  0.000000  0.000000  -31.219175  0.166259  7.746860  54.794955  6.377542  -7.410590  26.617374  33.544047  -15.355105  20.396082  125.105217
0.269724  0.000000  0.000000  0.000000  -31.219175  0.166259  -2.253140  53.715890  14.501226  -1.475421  26.617374  33.544047  -15.355105  20.396082  125.105217
0.270113  0.000000  0.000000  0.000000  -12.693149  4.812722  -2.253140  46.080569  32.305940  -0.236743  22.344150  26.685092  -20.285227  18.200926  119.549463
0.270501  0.000000  0.000000  0.000000  -26.584945  -0.755383  -2.253140  49.381269  39.265779  -9.302342  17.802850  38.265973  -24.621643  13.430674  115.345841
0.270890  0.000000  0.000000  0.000000  -28.100149  -2.741066  -2.253140  49.206303  -8.981918  1.334003  36.073031  31.396168  -19.522795  11.542397  127.440457
0.271279  0.000000  0.000000  0.000000  -37.261554  -1.888857  -2.253140  58.780560  37.554554  1.040906  27.577158  41.802887  -10.598607  18.674279  129.405835
0.271667  0.000000  0.000000  0.000000  -11.440966  9.741809  -2.253140  48.955270  19.645007  2.589745  23.876276  36.998243  -12.116154  23.667676  117.309583
0.272056  0.000000  0.000000  0.000000  -33.803115  2.929360  -2.253140  50.839647  5.162878  -2.006000  28.806411  33.372978  -9.203091  16.820152  133.825073
0.272445  0.000000  0.000000  0.000000  -18.432994  6.619937  -2.253140  59.255797  33.133477  5.206099  18.760994  37.880603  -16.588110  29.626059  133.113720
0.272833  0.000000  0.000000  0.000000  -17.147411  2.578773  -2.253140  49.491146  -3.794327  3.802727  18.269330  41.000165  -8.142411  23.513386  133.461626
0.273222  0.000000  0.000000  0.000000  -17.612049  8.715088  -2.253140  44.105679  14.437940  -4.738033  35.421639  25.769716  -24.177595  14.908461  118.676156
0.273611  0.000000  0.000000  0.000000  -46.982774  -9.644373  -2.253140  61.809763  35.813577  -7.423635  28.283832  34.471463  -5.736681  19.059904  117.130871
0.273999  0.000000  0.000000  0.000000  -38.945244  1.290964  -2.253140  59.826239  30.853943  5.474224  32.522539  28.102508  -23.781829  26.011309  118.576516
0.274388  0.000000  0.000000  0.000000  -42.362816  -7.491080  -2.253140  50.719823  7.826961  -8.508418  27.709318  27.517990  -13.276132  29.362050  127.211848
0.274777  0.000000  0.000000  0.000000  -16.037818  -2.621629  -2.253140  62.013623  8.921401  1.610707  35.072185  42.012900  -21.274495  13.773586  115.501334
0.275165  0.000000  0.000000  0.000000  -22.305296  7.725474  -2.253140  45.349178  17.290193  -1.581593  28.658670  30.483182  -15.999282  28.670139  120.410116
0.275554  0.000000  0.000000  0.000000  -31.219175  0.166259  3.746860  54.469070  9.639804  -5.072797  26.617374  33.544047  -15.355105  20.396082  125.105217
